<svg fill="none" height="609" viewBox="0 0 1374 609" width="1374" xmlns="http://www.w3.org/2000/svg" xmlns:xlink="http://www.w3.org/1999/xlink"><clipPath id="a"><path d="m0 0h1374v609h-1374z"/></clipPath><g clip-path="url(#a)"><path d="m739.53 466.06c81.832 0 148.17-8.968 148.17-20.03s-66.338-20.03-148.17-20.03-148.17 8.968-148.17 20.03 66.338 20.03 148.17 20.03z" fill="#e3e5fc"/><path d="m1026.99 563.83c81.83 0 148.17-8.968 148.17-20.03s-66.34-20.03-148.17-20.03c-81.832 0-148.17 8.968-148.17 20.03s66.338 20.03 148.17 20.03z" fill="#e3e5fc"/><path clip-rule="evenodd" d="m892.4 273.65c3.5-20.66 5.25-45.36 5.25-74.08 0-52.9-6.66-93.8-19.96-122.69-7.71-16.64-17.12-30.6-28.24-41.9-11.13-11.3-24.04-19.88-38.75-25.75001-14.71-5.87-31.09-8.799997-49.13-8.799997-27.32 0-50.83 6.609997-70.54 19.830007-19.71 13.22-34.73 32.44-45.06 57.66-5.96 15.24-10.34 33.45-13.14 54.64-2.8 21.2-4.2 45.02-4.2 71.46 0 20.49 1.27 39.54 3.81 57.14 2.53 17.6 6.52 33.67 11.95 48.21 10.69 26.63 26.58 47.47 47.69 62.53s44.97 22.59 71.59 22.59c23.12 0 44.14-5.6 63.05-16.81 18.92-11.2 34.33-27.14 46.24-47.81 9.46-16.81 15.93-35.55 19.44-56.22zm-72.52-158.03c3.85 20.41 5.78 46.64 5.78 78.69 0 33.8-1.84 61.13-5.52 81.96-3.68 20.85-10.08 36.87-19.18 48.08-9.11 11.21-21.72 16.81-37.83 16.81-15.59 0-27.94-5.39-37.04-16.16-9.11-10.77-15.59-26.66-19.44-47.68s-5.78-47.99-5.78-80.92c0-48.51 4.51-84.42 13.53-107.71s25.09-34.94 48.21-34.94c16.11 0 28.72 5.21 37.83 15.63 9.11 10.43 15.58 25.84 19.44 46.24z" fill="#978cff" fill-rule="evenodd"/><path clip-rule="evenodd" d="m1069.18 420.86v48.87c0 13.13 3.02 23.07 9.08 29.81 6.04 6.74 13.97 10.11 23.78 10.11 9.97 0 17.95-3.28 23.9-9.85s8.93-16.59 8.93-30.08v-48.87h16.02c13.31 0 23.29-2.32 29.95-6.96 6.65-4.64 9.98-12.04 9.98-22.2 0-12.43-4.08-20.49-12.22-24.17s-18.96-5.52-32.44-5.52h-11.3v-203.35c0-30.47-13.31-45.71-39.93-45.71-8.24 0-15.29 2.76-21.15 8.28-5.87 5.52-13.36 14.41-22.46 26.67l-139.24 186.26c-3.85 5.09-7.09 9.38-9.72 12.88s-5.17 7.14-7.62 10.9c-2.45 3.77-4.29 7.35-5.52 10.77s-1.84 6.79-1.84 10.12c0 12.97 4.16 23.21 12.48 30.74 8.32 7.54 20.8 11.3 37.44 11.3zm0-58.85h-112.97l112.97-152.64z" fill="#978cff" fill-rule="evenodd"/><path d="m449.14 592.87c81.832 0 148.17-8.968 148.17-20.03s-66.338-20.03-148.17-20.03-148.17 8.968-148.17 20.03 66.338 20.03 148.17 20.03z" fill="#e3e5fc"/><path clip-rule="evenodd" d="m493.26 452.7v48.87c0 13.13 3.02 23.08 9.07 29.81 6.05 6.74 13.97 10.11 23.78 10.11 9.99 0 17.95-3.28 23.91-9.85 5.95-6.57 8.93-16.59 8.93-30.08v-48.87h16.02c13.31 0 23.29-2.32 29.95-6.96 6.65-4.64 9.98-12.04 9.98-22.2 0-12.43-4.08-20.49-12.22-24.17-8.15-3.68-18.96-5.52-32.45-5.52h-11.3v-203.35c0-30.47-13.31-45.71-39.93-45.71-8.24 0-15.28 2.76-21.15 8.28s-13.35 14.41-22.46 26.67l-139.24 186.26c-3.85 5.09-7.09 9.38-9.72 12.88s-5.17 7.14-7.62 10.9c-2.46 3.77-4.3 7.35-5.52 10.77-1.23 3.42-1.84 6.79-1.84 10.12 0 12.97 4.16 23.21 12.48 30.74 8.32 7.54 20.8 11.3 37.44 11.3zm0-58.85h-112.97l112.97-152.64z" fill="#978cff" fill-rule="evenodd"/><path d="m1154.09 354.8c1.06-6.24 2.51-12.85 8.5-17.39 7.6-5.73 20.06-6.46 30.42-4.39 10.35 2.08 19.68 6.56 29.91 9.55 2.75.8 5.91 1.48 8.56.44 2.68-1.04 3.96-3.5 4.85-5.78 9.81-26.24-.57-53.76-.4-80.18-.07-7.19.86-15.13 5.88-21.28 13.03-16.91 18.19-7.75 30.17-26.36 8.37-13 10.15-37.38 24.53-45.88 29.73-17.59 29 47.74 31.14 62.72 4.05 28.42 43.51 26.98 36.05 61.43-3.24 14.96-13.12 27.16-19.62 40.58-6.4 13.47-8.49 31 4.48 41.32 8.45 6.72 23.26 10.53 24.41 20.34.66 5.78-4.45 10.39-9.36 14.15-12.25 9.43-25.12 18.26-38.58 26.48-3.4 2.08-7.02 4.29-8.21 7.51-1.64 4.4 1.75 9.27 4.24 13.85 9.19 16.9 5.29 35.52-6.7 49.33-11.9 13.83-30.97 23.49-50.7 31.74-25.38 10.66-52.2 19.51-80.3 26.42-82.44 16.67-53.93-46.48-50.42-69.26 6.39-45.63 13.44-90.75 21.15-135.34z" fill="#5a54ff"/><path d="m1204.29 535.39c-.22 0-.45-.04-.67-.12-.97-.37-1.45-1.45-1.08-2.42l94.87-247.83c.37-.97 1.46-1.45 2.42-1.08.97.37 1.45 1.45 1.08 2.42l-94.87 247.83c-.28.75-.99 1.2-1.75 1.2z" fill="#fff"/><path d="m1258.22 394.36c-.65 0-1.29-.34-1.63-.96l-16.77-29.87c-.51-.9-.19-2.04.71-2.55.91-.5 2.05-.19 2.55.72l16.77 29.87c.51.9.19 2.04-.71 2.55-.3.16-.61.24-.92.24z" fill="#fff"/><path d="m1272.02 359.37c-.71 0-1.38-.4-1.7-1.09-.43-.94-.02-2.05.91-2.49l31.1-14.36c.94-.43 2.05-.03 2.49.92.43.94.02 2.05-.91 2.49l-31.1 14.36c-.26.12-.53.17-.79.17z" fill="#fff"/><path d="m1148.75 562.55c-7.43-.99-14.8-2.06-20.69-6.62-3.05-2.36-5.41-7.14-2.63-9.8 1.4-1.34 3.52-1.48 5.41-1.9 7.29-1.62 2.21-7.63-1.87-9.62-7.19-3.5-15.66-5.91-19.98-12.64-.27-.42-.53-.89-.51-1.39.04-.75.69-1.31 1.32-1.72 4.29-2.78 12.55-1.17 15.13-6.2 6.3-12.29-21.14-27.42-27.68-33.74-1.25-1.21-2.56-2.52-2.91-4.22-.69-3.3 2.64-6.22 5.96-6.82 5.08-.91 10.3 1.3 15.34-.29 3.97-1.25 6.08-5.5 6.45-9.41 1.12-11.76-6.1-23.27-7.21-34.87-.91-9.49 2.95-28.41 16.3-25.9 6.11 1.15 8.92 8.03 11.6 13.64 2.49 5.2 5.81 10.97 9.97 14.97 3.05 2.93 7.2 5.01 11.42 4.63 8.19-.75 17.89-8.82 19.96 4.29.63 4.02-.22 8.11-.09 12.17s1.62 8.55 5.29 10.31c6.68 3.21 23.6-7.94 24.65 5.16.27 3.28-1.05 6.45-2.15 9.55-5.31 14.99 8.62 12.28 13.71 22.32 1.83 3.61 1.64 7.98.39 11.83-2.01 6.18-6.29 11.52-9.12 17.34-5.75 11.82-8.85 24.77-11.08 37.65-1.63 9.45-1.55 27.38-14.13 29.42-7.76 1.26-12-10.17-15.4-15.11-6.62-9.59-16.5-11.57-27.45-13.03z" fill="#fdc510"/><g fill="#fff"><path d="m1199.74 594.74c-.77 0-1.49-.47-1.76-1.24l-48.8-135.03c-.35-.97.15-2.05 1.13-2.4.96-.36 2.05.15 2.4 1.13l48.8 135.03c.35.97-.15 2.05-1.13 2.4-.21.07-.42.11-.64.11z"/><path d="m1166.65 500.84c-.17 0-.34-.02-.51-.07-1-.28-1.57-1.32-1.29-2.31l8.06-28.44c.28-1 1.3-1.58 2.32-1.29 1 .28 1.57 1.32 1.29 2.31l-8.06 28.44c-.24.82-1 1.36-1.81 1.36z"/><path d="m1184.85 549.61c-.17 0-.34-.02-.51-.07-1-.28-1.57-1.32-1.29-2.31l8.06-28.44c.28-1 1.31-1.59 2.32-1.29 1 .28 1.57 1.32 1.29 2.31l-8.06 28.44c-.24.82-1 1.36-1.81 1.36z"/><path d="m1173.72 527.51c-.18 0-.36-.03-.55-.08l-27.76-8.41c-.99-.3-1.55-1.35-1.25-2.34s1.34-1.55 2.34-1.25l27.76 8.41c.99.3 1.55 1.35 1.25 2.34-.24.81-.98 1.33-1.79 1.33z"/></g><path d="m850.68 499.72c.26.01.52.07.79.22.83.45 1.14 1.48 1.34 2.41 1.81 8.5 1.76 6.42.86 17.57 1.9-6.96 1.15-5.74 4.7-12.03.69-1.22 1.46-2.47 2.66-3.21 7.76-4.75.25 16.3-1.07 18.72-4.87 8.96-14.34 11.18-23.53 7.88-8.06-2.9-15.76-9.17-18.65-17.38-.26-.74-.45-1.67.1-2.23.38-.39.98-.44 1.52-.44 4.87-.01 9.43 2.47 13.15 5.6s6.8 6.96 10.3 10.33c2.48 2.39 7.96 2.25 11.38 2.67 5.82.7 8.12-1.55 13.17-4.53 1.1-.65 2.3-1.24 3.58-1.23s2.63.82 2.87 2.07c.14.75-.12 1.51-.44 2.2-4.14 8.74-15.41 7.57-20.38.59-4.74-6.65-7.79-17.73-5.52-25.71.47-1.61 1.74-3.53 3.17-3.5z" fill="#a7adff"/><path d="m118.08 565.52c.25.07.48.21.7.44.67.72.67 1.96.59 3.05-.75 10.06-.18 7.69-4.32 20.06 3.89-7.39 2.8-6.2 8.08-12.4 1.03-1.21 2.14-2.43 3.51-2.96 8.91-3.41-4.55 18.47-6.53 20.87-7.34 8.89-17.16 9.01-25.08 2.97-6.95-5.3-12.56-14.33-12.94-24.32-.03-.9.06-2 .75-2.49.48-.34 1.07-.25 1.6-.12 4.71 1.21 8.4 5.16 11.08 9.64s4.54 9.57 6.94 14.26c1.7 3.33 7.04 4.55 10.23 5.88 5.43 2.26 8.31.29 14.07-1.8 1.26-.45 2.59-.82 3.83-.48s2.31 1.58 2.17 3.06c-.08.88-.56 1.68-1.07 2.37-6.57 8.83-17.14 4.67-19.9-4.46-2.63-8.71-2.33-21.99 2.21-30.43.9-1.69 2.7-3.53 4.08-3.14z" fill="#a7adff"/><path d="m623.64 431.45c.81-8.26.79-15.92 3.5-23.98.91-2.72 2.21-5.62 4.79-6.86.49-.24 1.07-.4 1.56-.18.43.19.7.62.92 1.05 14.04 26.9-23.64 42.03-40.83 21.8-1.06-1.25-2.06-2.68-2.21-4.32-.27-3 2.59-5.59 5.58-5.94s5.92 1.01 8.39 2.72c6.54 4.53 10.89 11.51 15.05 18.28-5.8-8.72-8.79-19.27-8.44-29.73.05-1.57.58-3.58 2.15-3.71.75-.06 1.44.37 2.04.83 4.28 3.29 6.69 8.56 7.59 13.89.9 5.32.43 10.78-.09 16.15z" fill="#fdc510"/><path d="m1088.64 606.55c7.05-7.26 12.86-14.61 21.52-20.16 2.92-1.87 6.33-3.6 9.68-2.72.63.17 1.3.47 1.59 1.08.26.53.17 1.16.06 1.74-7.46 37.06-54 21.24-54.55-11.96-.03-2.06.13-4.23 1.24-5.91 2.04-3.08 6.67-3.27 9.71-1.2s4.73 5.73 5.72 9.36c2.62 9.6 1.35 19.78.05 29.61 1.26-13.01 6.51-25.53 14.81-35.27 1.25-1.46 3.27-2.96 4.83-1.83.75.54 1.06 1.52 1.26 2.44 1.47 6.6-.31 13.59-3.54 19.41-3.21 5.83-7.8 10.68-12.38 15.41z" fill="#fdc510"/><path d="m124.99 402.42c.58-9.24 3.06-20.26 11.8-23.3 12.84-4.47 22.07 11.77 31.86 21.21 2.24 2.16 4.94 4.12 8.04 4.39 3.09.27 6.11-1.19 8.55-3.11 8.54-6.74 11.21-18.44 12.22-29.27 1.02-10.83 1.08-22.22 6.32-31.76 5.23-9.53 18-16.05 27.22-10.31 20.75 12.9 27.69-17.79 40.35-27.83 5.33-4.23 12.74-6.51 19.08-4.04 6.22 2.42 10.04 8.73 12.26 15.02 5.04 14.33 4.26 33-4.16 46.05-7.92 12.27-25.52 17.15-27.74 33.53-1.53 11.27 6.45 22.64 3.42 33.6-2.53 9.14-11.93 14.85-15.49 23.64-4.79 11.85 2.12 26.25-3.39 37.77-3.59 7.49-11.69 11.99-15.47 19.39-4.65 9.12-1.66 20.08-2.23 30.3-1.21 21.9-21.29 42.18-43.98 40.21-19.39-1.68-28.43-23.92-37.09-39.26-23.22-41.15-34.55-89.05-31.57-136.23z" fill="#f44e4e"/><path d="m197.12 522.62c-.16 0-.31-.02-.47-.06-1-.26-1.6-1.28-1.34-2.29l29.08-111.8c.26-1 1.28-1.61 2.29-1.34 1 .26 1.6 1.28 1.34 2.29l-29.08 111.8c-.23.84-.99 1.4-1.82 1.4z" fill="#fff"/><path d="m214.12 457.24c-.56 0-1.12-.25-1.49-.73l-23.6-30.77c-.63-.82-.47-2 .35-2.63s2-.47 2.63.35l23.6 30.77c.63.82.47 2-.35 2.63-.34.25-.74.38-1.14.38z" fill="#fff"/><path d="m175.68 586.44c-8.85-3.74-17.08-12.07-25.41-18.87-18.18-14.86-18.82-34.05-104.18-48.27-39.67995-6.61-10.4-49.25-32.38-83.08-6.93995-10.68-13.6399507-22.5-13.109951-35.23.530001-12.73 11.359951-25.79 23.969951-23.95 7.57 1.1 13.4201 6.92 19.86 11.05 6.44 4.13 15.7901 6.34 21.1301.87-4.05-8.56-10.9001-15.41-16.27-23.21-5.37-7.79-9.3501-17.58-6.5401-26.62 4.34-13.97 16.99-5.23 22.33-10.96 7.17-7.68 5.3-28.16 10.6-38.74 12.43-24.81 55.93-34.4 72.17-7.56 18.8 31.07 6.71 73.7-2.41 109.01-12.68 49.09 36.33 65.58 52.35 99.46 11.54 24.43 28.57 68.67 3.57 90.78-9.39 8.33-17.78 8.65-25.68 5.32z" fill="#978cff"/><path d="m195.79 597.09c-.68 0-1.33-.37-1.66-1.01l-83.01-158.87c-.48-.92-.12-2.05.79-2.53s2.05-.12 2.53.79l83.01 158.87c.48.92.12 2.05-.79 2.53-.28.16-.57.22-.87.22z" fill="#fff"/><path d="m154.28 522.07c-.33 0-.67-.09-.97-.27l-60.7-36.98c-.88-.54-1.16-1.69-.63-2.58.54-.88 1.69-1.16 2.58-.63l60.7 36.98c.88.54 1.16 1.69.63 2.58-.36.58-.97.9-1.61.9z" fill="#fff"/><path d="m131.45 474.68c-.33 0-.67-.09-.97-.27l-60.7-36.98c-.88-.54-1.16-1.69-.63-2.58.54-.88 1.69-1.16 2.58-.63l60.7 36.98c.88.54 1.16 1.69.63 2.58-.36.58-.98.9-1.61.9z" fill="#fff"/><path d="m171.45 554.92c-.12 0-.25-.01-.38-.04-1.01-.2-1.67-1.19-1.46-2.21l11.71-57.56c.2-1.01 1.19-1.66 2.21-1.46 1.01.2 1.67 1.19 1.46 2.21l-11.71 57.56c-.17.89-.96 1.5-1.83 1.5z" fill="#fff"/><path d="m1358.74 548.85c4.39-6.86 8.17-14.81 9.14-23.7.23-2.15.26-4.52-.72-6.26-.85-1.51-2.28-2.22-3.67-2.61-9.86-2.78-19.11 6.75-26.22 16.18-12.57 16.66-23.79 35.09-33.41 54.88 5.76-11.84 8.79-34.55 7.42-48.47-.05-.55-.14-1.14-.46-1.49-.33-.35-.8-.33-1.22-.23-3.03.77-4.94 4.66-6.4 8.26-4.5 11.15-8.41 24.03-11.02 36.54 1.64-7.86-3.21-17.32-7.61-22-7.87-8.37-6.19 3.31-4.48 10.17 1.67 6.73 12.8 33.05 20.73 27.17 1.45-1.08 1.81-6.96 3-8.85 2.08-3.28 4.97-4.36 7.95-5.58 8-3.28 16.33-4.63 23.85-9.79 8.79-6.02 16.73-14.23 23.12-24.22z" fill="#f44e4e"/><path d="m341.81 509.74c.26-.04.53-.01.81.09.89.32 1.36 1.28 1.7 2.17 3.12 8.11 2.75 6.06 3.62 17.21.78-7.18.23-5.85 2.75-12.62.49-1.32 1.05-2.67 2.12-3.59 6.92-5.91 2.81 16.06 1.89 18.65-3.4 9.61-12.4 13.29-22 11.48-8.41-1.59-17.01-6.58-21.15-14.23-.37-.69-.71-1.58-.25-2.22.31-.44.89-.59 1.43-.67 4.8-.77 9.7.95 13.87 3.46s7.81 5.8 11.8 8.58c2.83 1.97 8.21.97 11.66.84 5.86-.22 7.77-2.81 12.29-6.54.99-.81 2.08-1.59 3.35-1.77s2.73.39 3.16 1.59c.26.72.12 1.51-.09 2.24-2.71 9.28-14.03 9.9-20.03 3.79-5.73-5.83-10.49-16.28-9.5-24.52.19-1.65 1.15-3.74 2.57-3.94z" fill="#978cff"/></g></svg>